<?xml version="1.0" encoding="UTF-8" standalone="no"?>
<svg
   xmlns:dc="http://purl.org/dc/elements/1.1/"
   xmlns:cc="http://creativecommons.org/ns#"
   xmlns:rdf="http://www.w3.org/1999/02/22-rdf-syntax-ns#"
   xmlns:svg="http://www.w3.org/2000/svg"
   xmlns="http://www.w3.org/2000/svg"
   id="svg72"
   version="1.1"
   viewBox="0 0 91.096378 91.09659"
   height="97.16954"
   width="97.16954">
  <metadata
     id="metadata78">
    <rdf:RDF>
      <cc:Work
         rdf:about="">
        <dc:format>image/svg+xml</dc:format>
        <dc:type
           rdf:resource="http://purl.org/dc/dcmitype/StillImage" />
        <dc:title></dc:title>
      </cc:Work>
    </rdf:RDF>
  </metadata>
  <defs
     id="defs76" />
  <path
     style="fill:#ffd242;stroke:#cccccc;stroke-width:0.35499999;stroke-linejoin:bevel"
     id="path28"
     d="m 53.541906,66.965797 v 18.282 l 15.786,-5.745 v -18.283 z" />
  <path
     style="fill:#ffffff"
     id="path30"
     d="m 66.466906,71.422797 a 2.617,3.737 35 0 1 -3.032,4.33 2.617,3.737 35 0 1 -3.031,-2.122 2.617,3.737 35 0 1 3.031,-4.33 2.617,3.737 35 0 1 3.032,2.123 z" />
  <path
     style="fill:#ffd242;stroke:#cccccc;stroke-width:0.35499999;stroke-linejoin:bevel"
     id="path32"
     d="m 37.918906,72.646797 v 18.283 l 15.786,-5.746 v -18.283 z" />
  <path
     style="fill:#efeeea;stroke:#cccccc;stroke-width:0.35499999;stroke-linejoin:bevel"
     id="path36"
     d="m 22.362906,66.984797 15.556,5.662 v 18.283 l -15.556,-5.662 z" />
  <path
     style="fill:#ffd242;stroke:#cccccc;stroke-width:0.35499999;stroke-linejoin:bevel"
     id="path38"
     d="m 69.165906,42.820797 v 18.282 l 15.785,-5.745 v -18.283 z" />
  <path
     style="fill:#ffc91d;stroke:#cccccc;stroke-width:0.35499999;stroke-linejoin:bevel"
     id="path40"
     d="m 53.609906,18.694797 15.556,5.662 15.785,-5.746 -15.555,-5.662 z" />
  <path
     style="fill:#ffd242;stroke:#cccccc;stroke-width:0.35499999;stroke-linejoin:bevel"
     id="path42"
     d="m 69.165906,24.356797 v 18.282 l 15.785,-5.745 v -18.283 z m -15.624,24.145 v 18.282 l 15.786,-5.745 v -18.283 z" />
  <path
     style="fill:#3775a9;stroke:#cccccc;stroke-width:0.35499999;stroke-linejoin:bevel"
     id="path44"
     d="m 53.541906,30.037797 v 18.282 l 15.786,-5.745 v -18.283 z" />
  <path
     style="fill:#2f6491;stroke:#cccccc;stroke-width:0.35499999;stroke-linejoin:bevel"
     id="path46"
     d="m 37.986906,5.9117968 15.555,5.6620012 15.786,-5.7460012 -15.555,-5.66099997 z" />
  <path
     style="fill:#3775a9;stroke:#cccccc;stroke-width:0.35499999;stroke-linejoin:bevel"
     id="path48"
     d="m 53.541906,11.572798 v 18.283 l 15.786,-5.745 V 5.8277968 Z" />
  <path
     style="fill:#ffd242;stroke:#cccccc;stroke-width:0.35499999;stroke-linejoin:bevel"
     id="path50"
     d="m 37.918906,54.182797 v 18.283 l 15.786,-5.746 v -18.283 z" />
  <path
     style="fill:#3775a9;stroke:#cccccc;stroke-width:0.35499999;stroke-linejoin:bevel"
     id="path52"
     d="m 37.918906,35.718797 v 18.283 l 15.786,-5.746 v -18.283 z m -15.623,24.145 v 18.283 l 15.785,-5.746 v -18.282 z" />
  <path
     style="fill:#2f6491;stroke:#cccccc;stroke-width:0.35499999;stroke-linejoin:bevel"
     id="path54"
     d="m 6.7399045,54.202797 15.5560015,5.661 v 18.283 l -15.5560015,-5.662 z m 0,-18.465 15.5560015,5.662 15.785,-5.745 -15.555,-5.662 z" />
  <path
     style="fill:#3775a9;stroke:#cccccc;stroke-width:0.35499999;stroke-linejoin:bevel"
     id="path56"
     d="m 22.295906,41.399797 v 18.283 l 15.785,-5.746 v -18.282 z" />
  <path
     style="fill:#2f6491;stroke:#cccccc;stroke-width:0.35499999;stroke-linejoin:bevel"
     id="path58"
     d="m 6.7399045,35.737798 15.5560015,5.662 v 18.283 l -15.5560015,-5.662 z m 15.6240015,-24.145 15.555,5.662 15.786,-5.746 -15.556,-5.6610012 z" />
  <path
     style="fill:#3775a9;stroke:#cccccc;stroke-width:0.35499999;stroke-linejoin:bevel"
     id="path60"
     d="m 37.918906,17.254797 v 18.283 l 15.786,-5.746 v -18.283 z" />
  <path
     style="fill:#2f6491;stroke:#cccccc;stroke-width:0.35499999;stroke-linejoin:bevel"
     id="path62"
     d="m 22.363906,11.592797 15.555,5.662 v 18.283 l -15.555,-5.662 z" />
  <path
     style="fill:#ffffff"
     id="path64"
     d="m 46.843906,23.126797 a 2.617,3.737 35 0 1 -3.032,4.33 2.617,3.737 35 0 1 -3.032,-2.123 2.617,3.737 35 0 1 3.032,-4.33 2.617,3.737 35 0 1 3.032,2.123 z" />
</svg>
